<svg width="32" height="20" viewBox="0 0 32 20" fill="none" xmlns="http://www.w3.org/2000/svg">
<path d="M20.9062 0.124973C21.4563 -0.112527 22.0938 -2.68519e-05 22.5312 0.412473L31.5312 8.91247C31.8313 9.19372 32 9.58747 32 9.99997C32 10.4125 31.8313 10.8062 31.5312 11.0875L22.5312 19.5875C22.0938 20 21.4563 20.1125 20.9062 19.875C20.3562 19.6375 20 19.0937 20 18.5V13H2C0.89375 13 0 12.1062 0 11V8.99997C0 7.89372 0.89375 6.99997 2 6.99997H20V1.49997C20 0.899973 20.3562 0.362473 20.9062 0.124973Z" fill="#313131"/>
</svg>
