<svg width="32" height="20" viewBox="0 0 32 20" fill="none" xmlns="http://www.w3.org/2000/svg">
<path d="M11.0938 0.124973C10.5437 -0.112527 9.90625 -2.68519e-05 9.46875 0.412473L0.46875 8.91247C0.16875 9.19372 0 9.58747 0 9.99997C0 10.4125 0.16875 10.8062 0.46875 11.0875L9.46875 19.5875C9.90625 20 10.5437 20.1125 11.0938 19.875C11.6438 19.6375 12 19.0937 12 18.5V13H30C31.1063 13 32 12.1062 32 11V8.99997C32 7.89372 31.1063 6.99997 30 6.99997H12V1.49997C12 0.899973 11.6438 0.362473 11.0938 0.124973Z" fill="#313131"/>
</svg>
