<svg width="48" height="55" viewBox="0 0 48 55" fill="none" xmlns="http://www.w3.org/2000/svg">
<path d="M0 10.3125C0 8.41113 1.53214 6.875 3.42857 6.875H44.5714C46.4679 6.875 48 8.41113 48 10.3125C48 12.2139 46.4679 13.75 44.5714 13.75H3.42857C1.53214 13.75 0 12.2139 0 10.3125ZM0 27.5C0 25.5986 1.53214 24.0625 3.42857 24.0625H44.5714C46.4679 24.0625 48 25.5986 48 27.5C48 29.4014 46.4679 30.9375 44.5714 30.9375H3.42857C1.53214 30.9375 0 29.4014 0 27.5ZM48 44.6875C48 46.5889 46.4679 48.125 44.5714 48.125H3.42857C1.53214 48.125 0 46.5889 0 44.6875C0 42.7861 1.53214 41.25 3.42857 41.25H44.5714C46.4679 41.25 48 42.7861 48 44.6875Z" fill="white"/>
</svg>
