<svg width="76" height="76" viewBox="0 0 76 76" fill="none" xmlns="http://www.w3.org/2000/svg">
<circle cx="38" cy="38" r="38" fill="#313131"/>
<g clip-path="url(#clip0_1_152)">
<path d="M21.6737 25.6337C29.3475 23.8302 37.7241 24.8607 45.1016 29.1746C52.4792 33.4886 57.4852 40.2833 59.6767 47.8555C60.0866 49.2545 61.5472 50.0705 62.9452 49.6812C64.3432 49.2918 65.1552 47.8376 64.7525 46.4428C62.2056 37.608 56.3588 29.6755 47.7517 24.6426C39.1445 19.6096 29.3641 18.4044 20.4126 20.5061C18.9954 20.8463 18.1304 22.26 18.4725 23.6764C18.8147 25.0928 20.2493 25.9697 21.6665 25.6295L21.6737 25.6337ZM38.4765 40.5048C42.537 42.8791 45.3664 46.5386 46.7522 50.6654C47.2185 52.0499 48.7164 52.8022 50.0994 52.3565C51.4824 51.9109 52.23 50.419 51.7708 49.0387C49.9943 43.7427 46.3452 39.0243 41.1265 35.9727C35.9079 32.9212 30.0062 32.055 24.5267 33.1081C23.0915 33.3807 22.1693 34.7609 22.455 36.1918C22.7407 37.6227 24.135 38.5521 25.5703 38.2795C29.8392 37.4593 34.4159 38.1305 38.4836 40.509L38.4765 40.5048ZM36.4265 54.5103C37.8882 52.0106 37.0249 48.7785 34.5014 47.3029C31.9778 45.8273 28.7377 46.66 27.2761 49.1597C25.8144 51.6594 26.6777 54.8914 29.2012 56.367C31.7248 57.8426 34.9648 57.01 36.4265 54.5103Z" fill="white"/>
</g>
<defs>
<clipPath id="clip0_1_152">
<rect width="53" height="42" fill="white" transform="translate(26.2006 9) rotate(30.3164)"/>
</clipPath>
</defs>
</svg>
