<svg width="197" height="76" viewBox="0 0 197 76" fill="none" xmlns="http://www.w3.org/2000/svg">
<circle cx="38" cy="38" r="38" fill="white"/>
<g clip-path="url(#clip0_1_28)">
<path d="M21.6736 25.6337C29.3475 23.8302 37.724 24.8607 45.1016 29.1746C52.4791 33.4886 57.4851 40.2833 59.6766 47.8555C60.0865 49.2545 61.5471 50.0705 62.9452 49.6812C64.3432 49.2918 65.1552 47.8376 64.7524 46.4428C62.2056 37.608 56.3588 29.6755 47.7516 24.6426C39.1445 19.6096 29.364 18.4044 20.4126 20.5061C18.9954 20.8463 18.1304 22.26 18.4725 23.6764C18.8146 25.0928 20.2493 25.9697 21.6665 25.6295L21.6736 25.6337ZM38.4764 40.5048C42.5369 42.8791 45.3663 46.5386 46.7521 50.6654C47.2185 52.0499 48.7163 52.8022 50.0993 52.3565C51.4823 51.9109 52.2299 50.419 51.7708 49.0387C49.9942 43.7427 46.3451 39.0243 41.1265 35.9727C35.9079 32.9212 30.0062 32.055 24.5267 33.1081C23.0914 33.3807 22.1692 34.7609 22.4549 36.1918C22.7406 37.6227 24.135 38.5521 25.5702 38.2795C29.8391 37.4593 34.4159 38.1305 38.4836 40.509L38.4764 40.5048ZM36.4265 54.5103C37.8882 52.0106 37.0248 48.7785 34.5013 47.3029C31.9778 45.8273 28.7377 46.66 27.276 49.1597C25.8143 51.6594 26.6777 54.8914 29.2012 56.367C31.7247 57.8426 34.9648 57.01 36.4265 54.5103Z" fill="#313131"/>
</g>
<path d="M98.875 43.0469C98.875 42.6406 98.8125 42.276 98.6875 41.9531C98.5729 41.6198 98.3542 41.3177 98.0312 41.0469C97.7083 40.7656 97.2552 40.4896 96.6719 40.2188C96.0885 39.9479 95.3333 39.6667 94.4062 39.375C93.375 39.0417 92.3958 38.6667 91.4688 38.25C90.5521 37.8333 89.7396 37.349 89.0312 36.7969C88.3333 36.2344 87.7812 35.5833 87.375 34.8438C86.9792 34.1042 86.7812 33.2448 86.7812 32.2656C86.7812 31.3177 86.9896 30.4583 87.4062 29.6875C87.8229 28.9062 88.4062 28.2396 89.1562 27.6875C89.9062 27.125 90.7917 26.6927 91.8125 26.3906C92.8438 26.0885 93.974 25.9375 95.2031 25.9375C96.8802 25.9375 98.3438 26.2396 99.5938 26.8438C100.844 27.4479 101.812 28.276 102.5 29.3281C103.198 30.3802 103.547 31.5833 103.547 32.9375H98.8906C98.8906 32.2708 98.75 31.6875 98.4688 31.1875C98.1979 30.6771 97.7812 30.276 97.2188 29.9844C96.6667 29.6927 95.9688 29.5469 95.125 29.5469C94.3125 29.5469 93.6354 29.6719 93.0938 29.9219C92.5521 30.1615 92.1458 30.4896 91.875 30.9062C91.6042 31.3125 91.4688 31.7708 91.4688 32.2812C91.4688 32.6667 91.5625 33.0156 91.75 33.3281C91.9479 33.6406 92.2396 33.9323 92.625 34.2031C93.0104 34.474 93.4844 34.7292 94.0469 34.9688C94.6094 35.2083 95.2604 35.4427 96 35.6719C97.2396 36.0469 98.3281 36.4688 99.2656 36.9375C100.214 37.4062 101.005 37.9323 101.641 38.5156C102.276 39.099 102.755 39.7604 103.078 40.5C103.401 41.2396 103.562 42.0781 103.562 43.0156C103.562 44.0052 103.37 44.8906 102.984 45.6719C102.599 46.4531 102.042 47.1146 101.312 47.6562C100.583 48.1979 99.7135 48.6094 98.7031 48.8906C97.6927 49.1719 96.5625 49.3125 95.3125 49.3125C94.1875 49.3125 93.0781 49.1667 91.9844 48.875C90.8906 48.5729 89.8958 48.1198 89 47.5156C88.1146 46.9115 87.4062 46.1406 86.875 45.2031C86.3438 44.2656 86.0781 43.1562 86.0781 41.875H90.7812C90.7812 42.5833 90.8906 43.1823 91.1094 43.6719C91.3281 44.1615 91.6354 44.5573 92.0312 44.8594C92.4375 45.1615 92.9167 45.3802 93.4688 45.5156C94.0312 45.651 94.6458 45.7188 95.3125 45.7188C96.125 45.7188 96.7917 45.6042 97.3125 45.375C97.8438 45.1458 98.2344 44.8281 98.4844 44.4219C98.7448 44.0156 98.875 43.5573 98.875 43.0469ZM112.569 35.3438V55.5H108.069V32.0938H112.241L112.569 35.3438ZM123.272 40.3594V40.6875C123.272 41.9167 123.126 43.0573 122.834 44.1094C122.553 45.1615 122.136 46.0781 121.584 46.8594C121.032 47.6302 120.345 48.2344 119.522 48.6719C118.709 49.099 117.772 49.3125 116.709 49.3125C115.678 49.3125 114.782 49.1042 114.022 48.6875C113.261 48.2708 112.621 47.6875 112.1 46.9375C111.59 46.1771 111.178 45.2969 110.866 44.2969C110.553 43.2969 110.314 42.224 110.147 41.0781V40.2188C110.314 38.9896 110.553 37.8646 110.866 36.8438C111.178 35.8125 111.59 34.9219 112.1 34.1719C112.621 33.4115 113.256 32.8229 114.006 32.4062C114.767 31.9896 115.657 31.7812 116.678 31.7812C117.751 31.7812 118.694 31.9844 119.506 32.3906C120.329 32.7969 121.017 33.3802 121.569 34.1406C122.131 34.901 122.553 35.8073 122.834 36.8594C123.126 37.9115 123.272 39.0781 123.272 40.3594ZM118.756 40.6875V40.3594C118.756 39.6406 118.694 38.9792 118.569 38.375C118.454 37.7604 118.267 37.224 118.006 36.7656C117.756 36.3073 117.423 35.9531 117.006 35.7031C116.6 35.4427 116.105 35.3125 115.522 35.3125C114.907 35.3125 114.381 35.4115 113.944 35.6094C113.517 35.8073 113.168 36.0938 112.897 36.4688C112.626 36.8438 112.423 37.2917 112.288 37.8125C112.152 38.3333 112.069 38.9219 112.038 39.5781V41.75C112.09 42.5208 112.235 43.2135 112.475 43.8281C112.715 44.4323 113.084 44.9115 113.584 45.2656C114.084 45.6198 114.741 45.7969 115.553 45.7969C116.147 45.7969 116.647 45.6667 117.053 45.4062C117.459 45.1354 117.788 44.7656 118.038 44.2969C118.298 43.8281 118.48 43.2865 118.584 42.6719C118.699 42.0573 118.756 41.3958 118.756 40.6875ZM126.95 40.7188V40.3906C126.95 39.151 127.127 38.0104 127.481 36.9688C127.835 35.9167 128.351 35.0052 129.028 34.2344C129.705 33.4635 130.539 32.8646 131.528 32.4375C132.518 32 133.653 31.7812 134.934 31.7812C136.216 31.7812 137.356 32 138.356 32.4375C139.356 32.8646 140.195 33.4635 140.872 34.2344C141.559 35.0052 142.08 35.9167 142.434 36.9688C142.789 38.0104 142.966 39.151 142.966 40.3906V40.7188C142.966 41.9479 142.789 43.0885 142.434 44.1406C142.08 45.1823 141.559 46.0938 140.872 46.875C140.195 47.6458 139.361 48.2448 138.372 48.6719C137.382 49.099 136.247 49.3125 134.966 49.3125C133.684 49.3125 132.544 49.099 131.544 48.6719C130.554 48.2448 129.716 47.6458 129.028 46.875C128.351 46.0938 127.835 45.1823 127.481 44.1406C127.127 43.0885 126.95 41.9479 126.95 40.7188ZM131.45 40.3906V40.7188C131.45 41.4271 131.513 42.0885 131.638 42.7031C131.763 43.3177 131.96 43.8594 132.231 44.3281C132.513 44.7865 132.877 45.1458 133.325 45.4062C133.773 45.6667 134.32 45.7969 134.966 45.7969C135.591 45.7969 136.127 45.6667 136.575 45.4062C137.023 45.1458 137.382 44.7865 137.653 44.3281C137.924 43.8594 138.122 43.3177 138.247 42.7031C138.382 42.0885 138.45 41.4271 138.45 40.7188V40.3906C138.45 39.7031 138.382 39.0573 138.247 38.4531C138.122 37.8385 137.919 37.2969 137.638 36.8281C137.367 36.349 137.007 35.974 136.559 35.7031C136.111 35.4323 135.57 35.2969 134.934 35.2969C134.299 35.2969 133.757 35.4323 133.309 35.7031C132.872 35.974 132.513 36.349 132.231 36.8281C131.96 37.2969 131.763 37.8385 131.638 38.4531C131.513 39.0573 131.45 39.7031 131.45 40.3906ZM155.612 32.0938V35.2812H145.769V32.0938H155.612ZM148.206 27.9219H152.706V43.9062C152.706 44.3958 152.769 44.7708 152.894 45.0312C153.029 45.2917 153.227 45.474 153.487 45.5781C153.748 45.6719 154.076 45.7188 154.472 45.7188C154.753 45.7188 155.003 45.7083 155.222 45.6875C155.451 45.6562 155.644 45.625 155.8 45.5938L155.816 48.9062C155.43 49.0312 155.014 49.1302 154.566 49.2031C154.118 49.276 153.623 49.3125 153.081 49.3125C152.092 49.3125 151.227 49.151 150.487 48.8281C149.758 48.4948 149.196 47.9635 148.8 47.2344C148.404 46.5052 148.206 45.5469 148.206 44.3594V27.9219ZM164.525 32.0938V49H160.009V32.0938H164.525ZM159.728 27.6875C159.728 27.0312 159.957 26.4896 160.416 26.0625C160.874 25.6354 161.489 25.4219 162.259 25.4219C163.02 25.4219 163.629 25.6354 164.088 26.0625C164.556 26.4896 164.791 27.0312 164.791 27.6875C164.791 28.3438 164.556 28.8854 164.088 29.3125C163.629 29.7396 163.02 29.9531 162.259 29.9531C161.489 29.9531 160.874 29.7396 160.416 29.3125C159.957 28.8854 159.728 28.3438 159.728 27.6875ZM174.344 35.3438V55.5H169.844V32.0938H174.016L174.344 35.3438ZM185.047 40.3594V40.6875C185.047 41.9167 184.901 43.0573 184.609 44.1094C184.328 45.1615 183.911 46.0781 183.359 46.8594C182.807 47.6302 182.12 48.2344 181.297 48.6719C180.484 49.099 179.547 49.3125 178.484 49.3125C177.453 49.3125 176.557 49.1042 175.797 48.6875C175.036 48.2708 174.396 47.6875 173.875 46.9375C173.365 46.1771 172.953 45.2969 172.641 44.2969C172.328 43.2969 172.089 42.224 171.922 41.0781V40.2188C172.089 38.9896 172.328 37.8646 172.641 36.8438C172.953 35.8125 173.365 34.9219 173.875 34.1719C174.396 33.4115 175.031 32.8229 175.781 32.4062C176.542 31.9896 177.432 31.7812 178.453 31.7812C179.526 31.7812 180.469 31.9844 181.281 32.3906C182.104 32.7969 182.792 33.3802 183.344 34.1406C183.906 34.901 184.328 35.8073 184.609 36.8594C184.901 37.9115 185.047 39.0781 185.047 40.3594ZM180.531 40.6875V40.3594C180.531 39.6406 180.469 38.9792 180.344 38.375C180.229 37.7604 180.042 37.224 179.781 36.7656C179.531 36.3073 179.198 35.9531 178.781 35.7031C178.375 35.4427 177.88 35.3125 177.297 35.3125C176.682 35.3125 176.156 35.4115 175.719 35.6094C175.292 35.8073 174.943 36.0938 174.672 36.4688C174.401 36.8438 174.198 37.2917 174.062 37.8125C173.927 38.3333 173.844 38.9219 173.812 39.5781V41.75C173.865 42.5208 174.01 43.2135 174.25 43.8281C174.49 44.4323 174.859 44.9115 175.359 45.2656C175.859 45.6198 176.516 45.7969 177.328 45.7969C177.922 45.7969 178.422 45.6667 178.828 45.4062C179.234 45.1354 179.562 44.7656 179.812 44.2969C180.073 43.8281 180.255 43.2865 180.359 42.6719C180.474 42.0573 180.531 41.3958 180.531 40.6875ZM194.194 32.0938V49H189.678V32.0938H194.194ZM189.397 27.6875C189.397 27.0312 189.626 26.4896 190.084 26.0625C190.543 25.6354 191.157 25.4219 191.928 25.4219C192.689 25.4219 193.298 25.6354 193.756 26.0625C194.225 26.4896 194.459 27.0312 194.459 27.6875C194.459 28.3438 194.225 28.8854 193.756 29.3125C193.298 29.7396 192.689 29.9531 191.928 29.9531C191.157 29.9531 190.543 29.7396 190.084 29.3125C189.626 28.8854 189.397 28.3438 189.397 27.6875Z" fill="white"/>
<defs>
<clipPath id="clip0_1_28">
<rect width="53" height="42" fill="white" transform="translate(26.2005 9) rotate(30.3164)"/>
</clipPath>
</defs>
</svg>
